<svg width="250" height="250" xmlns="http://www.w3.org/2000/svg">
 <style type="text/css">.st0{fill:#7885ff;}
	.st1{fill:#5767ff;}
	.st2{fill:#FFFFFF;}</style>

 <g>
  <title>background</title>
  <rect fill="none" id="canvas_background" height="402" width="582" y="-1" x="-1"/>
 </g>
 <g>
  <title>Layer 1</title>
  <g id="svg_1">
   <polygon id="svg_2" points="125,30 125,30 125,30 31.9,63.2 46.1,186.3 125,230 125,230 125,230 203.9,186.3 218.1,63.2  " class="st0"/>
   <polygon id="svg_3" points="125,30 125,52.2 125,52.1 125,153.4 125,153.4 125,230 125,230 203.9,186.3 218.1,63.2 125,30  " class="st1"/>
  </g>
  <g stroke="null" id="svg_40">
   <g stroke="null" transform="matrix(5.151566009485359,0,0,5.151566009485359,4.305334907028424,145.1229652732052) " id="svg_24">
    <path stroke="null" id="svg_25" fill="#bdc3c7" d="m16.3846,-11.357034c-1.1046,0 -2,0.9 -2,2l0,14c0,1.1 0.8954,2 2,2l6,0l2,0l6,0c1.105,0 2,-0.9 2,-2l0,-14c0,-1.1 -0.895,-2 -2,-2l-6,0l-2,0l-6,0z"/>
    <path stroke="null" id="svg_26" fill="#ecf0f1" d="m16.3846,-12.35701c-1.1046,0 -2,0.8954 -2,2l0,14c0,1.105 0.8954,2 2,2l6,0l2,0l6,0c1.105,0 2,-0.895 2,-2l0,-14c0,-1.1046 -0.895,-2 -2,-2l-6,0l-2,0l-6,0z"/>
    <path stroke="null" id="svg_27" fill="#e74c3c" d="m16.3846,-12.35701c-1.1046,0 -2,0.8954 -2,2l0,3l0,1l18,0l0,-1l0,-3c0,-1.1046 -0.895,-2 -2,-2l-6,0l-2,0l-6,0z"/>
    <path stroke="null" id="svg_28" fill="#c0392b" d="m18.8846,-9.85701a1.5,1.5 0 1 1 -3,0a1.5,1.5 0 1 1 3,0z"/>
    <path stroke="null" id="svg_29" fill="#bdc3c7" d="m17.3846,-14.35701c-0.5523,0 -1,0.4477 -1,1l0,3c0,0.5523 0.4477,1 1,1s1,-0.4477 1,-1l0,-3c0,-0.5523 -0.4477,-1 -1,-1z"/>
    <path stroke="null" id="svg_30" fill="#c0392b" d="m30.8846,-9.85701a1.5,1.5 0 1 1 -3,0a1.5,1.5 0 1 1 3,0z"/>
    <g stroke="null" id="svg_31" fill="#bdc3c7">
     <path stroke="null" id="svg_32" d="m29.3846,-14.357034c-0.552,0 -1,0.4 -1,1l0,3c0,0.5 0.448,1 1,1s1,-0.5 1,-1l0,-3c0,-0.6 -0.448,-1 -1,-1z"/>
     <path stroke="null" id="svg_33" d="m16.3846,-4.357034l0,2l2,0l0,-2l-2,0zm3,0l0,2l2,0l0,-2l-2,0zm3,0l0,2l2,0l0,-2l-2,0zm3,0l0,2l2,0l0,-2l-2,0zm3,0l0,2l2,0l0,-2l-2,0z"/>
     <path stroke="null" id="svg_34" d="m16.3846,-1.357034l0,2l2,0l0,-2l-2,0zm3,0l0,2l2,0l0,-2l-2,0zm3,0l0,2l2,0l0,-2l-2,0zm3,0l0,2l2,0l0,-2l-2,0zm3,0l0,2l2,0l0,-2l-2,0z"/>
     <path stroke="null" id="svg_35" d="m16.3846,1.642966l0,2l2,0l0,-2l-2,0zm3,0l0,2l2,0l0,-2l-2,0zm3,0l0,2l2,0l0,-2l-2,0zm3,0l0,2l2,0l0,-2l-2,0zm3,0l0,2l2,0l0,-2l-2,0z"/>
    </g>
    <path stroke="null" id="svg_36" fill="#34495e" d="m34.8342,3.191346a4.94946,4.94946 0 1 1 -9.89892,0a4.94946,4.94946 0 1 1 9.89892,0z"/>
    <path stroke="null" id="svg_37" fill="#bdc3c7" d="m29.8846,-1.35701c-0.276,0 -0.5,0.224 -0.5,0.5l0,0.5l0,3l0,0.5c0,0.276 0.224,0.5 0.5,0.5l0.5,0l2,0l0.5,0c0.276,0 0.5,-0.224 0.5,-0.5s-0.224,-0.5 -0.5,-0.5l-0.5,0l-2,0l0,-3l0,-0.5c0,-0.276 -0.224,-0.5 -0.5,-0.5z"/>
    <path stroke="null" id="svg_38" fill="#7f8c8d" d="m29.8846,-2.357034c-3.038,0 -5.5,2.4 -5.5,5.5c0,3 2.462,5.5 5.5,5.5s5.5,-2.5 5.5,-5.5c0,-3.1 -2.462,-5.5 -5.5,-5.5zm0,1c2.485,0 4.5,2 4.5,4.5c0,2.4 -2.015,4.5 -4.5,4.5s-4.5,-2.1 -4.5,-4.5c0,-2.5 2.015,-4.5 4.5,-4.5z"/>
    <path stroke="null" id="svg_39" fill="#95a5a6" d="m30.3846,3.14299c0,0.276 -0.224,0.5 -0.5,0.5s-0.5,-0.224 -0.5,-0.5s0.224,-0.5 0.5,-0.5s0.5,0.224 0.5,0.5z"/>
   </g>
  </g>
 </g>
</svg>